<svg width="24" height="23" viewBox="0 0 24 23" fill="none" xmlns="http://www.w3.org/2000/svg">
<path d="M21.9609 0H1.28279C0.578649 0 0 0.572586 0 1.26935V21.7307C0 22.4343 0.578649 23 1.28279 23H21.9609C22.665 23 23.2437 22.4343 23.2437 21.7307V1.26935C23.2437 0.572586 22.665 0 21.9609 0ZM6.51854 19.7025H2.96994V8.56119H6.51854V19.7025ZM4.65012 7.16767H4.62921C3.33945 7.16767 2.50981 6.31914 2.50981 5.23605C2.50981 4.15297 3.36733 3.30444 4.67801 3.30444C5.98869 3.30444 6.79741 4.13227 6.81833 5.23605C6.81833 6.31224 5.98869 7.16767 4.65012 7.16767ZM20.7338 19.7025H16.7042V13.9352C16.7042 12.4244 16.0767 11.3965 14.6894 11.3965C13.6297 11.3965 13.0441 12.0933 12.7652 12.7624C12.6676 13.0039 12.6815 13.335 12.6815 13.6731V19.7025H8.68674C8.68674 19.7025 8.74251 9.4925 8.68674 8.56119H12.6815V10.3065C12.9186 9.54769 14.1944 8.45081 16.2231 8.45081C18.7539 8.45081 20.7338 10.0582 20.7338 13.5075V19.7025Z" fill="#0B1623"/>
</svg>
