<svg width="24" height="23" viewBox="0 0 24 23" fill="none" xmlns="http://www.w3.org/2000/svg">
<path d="M1.2828 22.9931H12.4166V14.087H9.39088V10.617H12.4166V8.05759C12.4166 5.08428 14.2502 3.47001 16.9273 3.47001C18.2101 3.47001 19.3116 3.56659 19.6323 3.60798V6.71236H17.7778C16.3208 6.71236 16.0419 7.39532 16.0419 8.40252V10.617H19.5138L19.0606 14.087H16.0419V22.9931H21.9609C22.672 22.9931 23.2437 22.4274 23.2437 21.7238V1.26935C23.2437 0.565687 22.672 0 21.9609 0H1.2828C0.571682 0 0 0.565687 0 1.26935V21.7307C0 22.4343 0.571682 23 1.2828 23V22.9931Z" fill="#0B1623"/>
</svg>
