<svg width="23" height="23" viewBox="0 0 23 23" fill="none" xmlns="http://www.w3.org/2000/svg">
<path d="M22.9439 6.69166C22.8881 5.4844 22.6999 4.64967 22.414 3.93221C22.1212 3.18026 21.7238 2.54559 21.0824 1.91782C20.448 1.28314 19.8066 0.889922 19.0467 0.60018C18.3147 0.317337 17.4781 0.131074 16.258 0.0758848C15.024 0.0137972 14.6406 0 11.5103 0C8.37999 0 7.99654 0.0137972 6.76952 0.0689862C5.5425 0.124175 4.7059 0.310438 3.97387 0.593281C3.22093 0.883023 2.57953 1.27624 1.93813 1.91092C1.29674 2.53869 0.906321 3.17337 0.61351 3.92531C0.32767 4.64967 0.125491 5.4844 0.069717 6.69166C0.0139434 7.90582 0 8.29904 0 11.3896C0 14.4802 0.0139434 14.8734 0.069717 16.0876C0.125491 17.2948 0.320698 18.1296 0.606538 18.847C0.89935 19.5921 1.28977 20.2268 1.93116 20.8614C2.57256 21.4961 3.21396 21.8893 3.9669 22.1791C4.7059 22.455 5.53553 22.6482 6.76255 22.7034C7.98957 22.7585 8.37999 22.7723 11.5033 22.7723C14.6266 22.7723 15.024 22.7585 16.251 22.7034C17.4711 22.6482 18.3147 22.455 19.0397 22.1791C19.7996 21.8893 20.441 21.4961 21.0755 20.8614C21.7169 20.2268 22.1142 19.5921 22.4071 18.847C22.6929 18.1227 22.8811 17.2948 22.9369 16.0876C22.9996 14.8734 23.0066 14.4802 23.0066 11.3896C23.0066 8.29904 22.9996 7.90582 22.9369 6.69166H22.9439ZM11.5103 17.2328C8.24753 17.2328 5.60525 14.6182 5.60525 11.3896C5.60525 8.16107 8.24753 5.53959 11.5103 5.53959C14.773 5.53959 17.4223 8.16107 17.4223 11.3896C17.4223 14.6182 14.773 17.2328 11.5103 17.2328ZM17.6524 6.67097C16.8924 6.67097 16.272 6.05699 16.272 5.30504C16.272 4.55309 16.8924 3.93911 17.6524 3.93911C18.4123 3.93911 19.0397 4.55309 19.0397 5.30504C19.0397 6.05699 18.4192 6.67097 17.6524 6.67097ZM11.5103 7.58848C9.39088 7.58848 7.67585 9.29244 7.67585 11.3827C7.67585 13.473 9.39786 15.177 11.5103 15.177C13.6227 15.177 15.3447 13.473 15.3447 11.3827C15.3447 9.29244 13.6297 7.58848 11.5103 7.58848Z" fill="#0B1623"/>
</svg>
